<?xml version="1.0" encoding="utf-8"?>
<!-- Generator: Adobe Illustrator 25.0.0, SVG Export Plug-In . SVG Version: 6.00 Build 0)  -->
<svg version="1.1" id="Layer_1" xmlns="http://www.w3.org/2000/svg" xmlns:xlink="http://www.w3.org/1999/xlink" x="0px" y="0px"
	 viewBox="0 0 48 48" style="enable-background:new 0 0 48 48;" xml:space="preserve">
<style type="text/css">
	.st0{fill:none;}
	.st1{fill:#FFFFFF;}
</style>
<path class="st0" d="M0,0h48v48H0V0z"/>
<path class="st1" d="M24,16c2.2,0,4-1.8,4-4s-1.8-4-4-4s-4,1.8-4,4S21.8,16,24,16z M24,20c-2.2,0-4,1.8-4,4s1.8,4,4,4s4-1.8,4-4
	S26.2,20,24,20z M24,32c-2.2,0-4,1.8-4,4s1.8,4,4,4s4-1.8,4-4S26.2,32,24,32z"/>
</svg>
