<?xml version="1.0" encoding="utf-8"?>
<!-- Generator: Adobe Illustrator 25.0.0, SVG Export Plug-In . SVG Version: 6.00 Build 0)  -->
<svg version="1.1" id="Layer_1" xmlns="http://www.w3.org/2000/svg" xmlns:xlink="http://www.w3.org/1999/xlink" x="0px" y="0px"
	 viewBox="0 0 382.9 382.7" style="enable-background:new 0 0 382.9 382.7;" xml:space="preserve">
<style type="text/css">
	.st0{fill:#6A6A6A;}
	.st1{fill:#6C6C6C;}
	.st2{fill:#ED5564;}
	.st3{fill:#F5F7FA;}
	.st4{fill:#434A54;}
</style>
<path class="st0" d="M591,104.3c1.2,1,1.5,2,0,3C591,106.3,591,105.3,591,104.3z"/>
<path d="M382.3,176.8C375.1,80.2,296.2,3.6,198.7,0c-6-0.1-12,0-18,0.2c-1,0-2,0.1-3,0.1C78.4,7.4,0,90.2,0,191.3
	c0,100.7,77.7,183.2,176.4,190.8c0,0,0,0,0,0c4.9,0.4,9.9,0.6,15,0.6c5,0,10-0.2,15-0.6c0,0,0,0,0,0
	c98.7-7.7,176.4-90.2,176.4-190.8c0-4.7-0.2-9.3-0.5-13.9C382.3,177.1,382.3,177,382.3,176.8z M17.7,164.7c0.5-3.4,1.1-6.9,1.9-10.3
	C37.4,74,108.6,17.1,191.4,17.1c85.4,0,157.7,60.1,173.3,143.8c1.2,6.4,0.1,9.3-7,10.5c-29.1,4.7-58.4,7.7-87.7,10.2
	c-6.1,0.5-9.2-1.1-11.5-7.3c-10.5-27.8-37.2-45.9-66.6-46.1c-29.4-0.2-56.6,18.2-67.3,46.2c-2.2,5.7-4.8,7.8-10.8,7.2
	c-21.4-2-42.7-3.8-64.1-6.5c-7.3-0.9-9.1-3.7-7.6-10.7c9.1-44.6,33.1-78.9,72.2-102.5c22-13.3,46-20.2,71.8-20.9
	c1.7,0,3.5,0,5.2-0.3c4.7-0.8,8.1-3.1,7.8-8.3c-0.3-5.2-3.7-7.4-8.5-7.5c-11.6-0.4-22.9,1.2-34.2,3.6c-66.9,14.4-117.8,66.9-130,134
	c-0.2,1.2-0.5,2.4-0.8,3.7c-0.5,2.5-0.7,5.2-4.5,4.3C17.7,169.6,17.3,167.3,17.7,164.7z M247,200.7c-0.1,30.1-25.1,55.1-55.3,55.3
	c-30.6,0.3-55.9-25.2-55.8-56.3c0.1-30.9,24.8-55.5,55.7-55.5C222.7,144.3,247.2,169.1,247,200.7z M16.4,189.1
	c0.6-3.2,3.1-2.6,5.3-2.3c12.8,1.8,25.6,3.7,38.5,5.4c15.8,2.1,31.6,3.9,47.6,4.5c1.5,0.1,3,0.2,4.4,0.6c2.9,0.8,7.4-0.1,6.8,4.9
	c-0.5,4.5-4.6,2.5-6.4,3.1c-30.5-2.4-60-5.4-89.2-10.4c-1.2-0.2-2.4-0.5-3.6-0.9C17.4,193.2,15.8,191.8,16.4,189.1z M365.5,215.7
	c-8.9,59.2-40.2,102.9-92.7,131.5c-25.2,13.7-52.5,20-81.3,19.8c-86,0-159.3-61.6-173.6-146c-1.9-11.2-1.9-11.3,8.8-9.5
	c29.8,4.9,59.9,7.9,90,9.9c4.8,0.3,6.7,2.2,8.6,6.3c13,28.2,35.2,43.7,66.5,43.6c31-0.1,52.9-15.7,65.7-43.6c1.9-4.1,3.8-6,8.6-6.3
	c23.2-1.6,46.3-3.4,69.3-6.9c5.2-0.8,6.4,0.6,5.4,5.8c-13.1,69-73.2,120.3-143.8,122.7c-1.7,0.1-3.5,0-5.2,0.2
	c-4.7,0.6-8.2,2.9-8,8.1c0.1,5.6,3.7,7.9,8.9,7.8c22.2-0.2,43.8-4.1,64.1-13.2c56.1-25.1,89.6-68,100.7-128.3c0.2-1,0.3-2,0.4-3
	c0-4.5,3.7-4.6,6.4-4.4C367.9,210.7,365.7,214,365.5,215.7z M360.5,194.6c-19.1,3.4-38.4,5.9-57.8,7.8c-10.9,1.1-21.8,2-32.8,2.9
	c-2.6-0.2-6,0.6-6.2-3.5c-0.2-3.9,3.1-4.1,5.7-4.3c18.1-1.9,36.2-3.5,54.3-5.5c11.9-1.3,23.7-3.3,35.5-4.9c2.7-0.3,6.4-2.6,7.2,2.2
	C367.1,193.6,363.4,194.1,360.5,194.6z"/>
<path class="st1" d="M382.4,177.3c0-0.2,0-0.4,0-0.5C382.3,177,382.3,177.1,382.4,177.3z"/>
<path class="st1" d="M176.4,382.1C176.4,382.1,176.4,382.1,176.4,382.1C176.4,382.1,176.4,382.1,176.4,382.1z"/>
<path class="st1" d="M206.4,382.1C206.4,382.1,206.4,382.1,206.4,382.1C206.4,382.1,206.4,382.1,206.4,382.1z"/>
<path class="st2" d="M21,170.4c3.8,0.9,4-1.8,4.5-4.3c0.3-1.2,0.5-2.4,0.8-3.7c12.2-67.1,63.1-119.6,130-134
	c11.2-2.4,22.6-4,34.2-3.6c4.8,0.1,8.2,2.4,8.5,7.5c0.3,5.2-3.1,7.5-7.8,8.3c-1.7,0.3-3.5,0.3-5.2,0.3c-25.8,0.6-49.8,7.6-71.8,20.9
	c-39,23.6-63,57.9-72.2,102.5c-1.4,6.9,0.3,9.7,7.6,10.7c21.3,2.7,42.7,4.5,64.1,6.5c6,0.6,8.6-1.5,10.8-7.2
	c10.7-28,37.9-46.4,67.3-46.2c29.4,0.2,56.1,18.3,66.6,46.1c2.3,6.2,5.4,7.8,11.5,7.3c29.4-2.5,58.6-5.4,87.7-10.2
	c7.1-1.2,8.2-4.1,7-10.5C349.1,77.1,276.8,17,191.4,17.1c-82.8,0-154,56.9-171.8,137.4c-0.8,3.4-1.3,6.8-1.9,10.3
	C17.3,167.3,17.7,169.6,21,170.4z"/>
<path class="st3" d="M364.1,210.4c-2.6-0.2-6.4-0.1-6.4,4.4c0,1-0.2,2-0.4,3C346.3,278,312.9,321,256.7,346
	c-20.3,9.1-41.8,13-64.1,13.2c-5.2,0-8.8-2.3-8.9-7.8c-0.1-5.2,3.3-7.5,8-8.1c1.7-0.2,3.5-0.2,5.2-0.2
	c70.6-2.4,130.7-53.7,143.8-122.7c1-5.2-0.2-6.6-5.4-5.8c-23,3.5-46.1,5.3-69.3,6.9c-4.8,0.3-6.7,2.2-8.6,6.3
	c-12.9,27.9-34.7,43.4-65.7,43.6c-31.3,0.1-53.5-15.3-66.5-43.6c-1.9-4.1-3.8-6-8.6-6.3c-30.2-2-60.2-5-90-9.9
	c-10.7-1.8-10.7-1.6-8.8,9.5c14.3,84.4,87.6,146.1,173.6,146c28.8,0.2,56.1-6.1,81.3-19.8c52.5-28.6,83.8-72.3,92.7-131.5
	C365.7,214,367.9,210.7,364.1,210.4z"/>
<path class="st4" d="M191.5,144.2c-30.9,0-55.6,24.6-55.7,55.5c-0.1,31,25.2,56.5,55.8,56.3c30.2-0.3,55.2-25.2,55.3-55.3
	C247.2,169.1,222.7,144.3,191.5,144.2z M191.3,239.8c-21.7-0.1-40-18.4-40-40.1c0-21.5,18-39.1,39.9-39.1
	c22.5,0,40.7,17.7,40.4,39.4C231.3,221.7,213,239.8,191.3,239.8z"/>
<path class="st4" d="M19.8,194c1.2,0.4,2.4,0.7,3.6,0.9c29.2,5.1,58.7,8.1,89.2,10.4c1.7-0.6,5.8,1.4,6.4-3.1c0.6-5-3.9-4.1-6.8-4.9
	c-1.4-0.4-3-0.5-4.4-0.6c-16-0.6-31.8-2.5-47.6-4.5c-12.8-1.7-25.7-3.6-38.5-5.4c-2.2-0.3-4.7-0.9-5.3,2.3
	C15.8,191.8,17.4,193.2,19.8,194z"/>
<path class="st4" d="M359.3,187.2c-11.9,1.6-23.7,3.5-35.5,4.9c-18.1,2-36.2,3.6-54.3,5.5c-2.6,0.3-6,0.4-5.7,4.3
	c0.3,4.1,3.6,3.2,6.2,3.5c10.9-1,21.8-1.9,32.8-2.9c19.3-1.9,38.6-4.4,57.8-7.8c2.9-0.5,6.6-1,6-5.2
	C365.7,184.6,361.9,186.9,359.3,187.2z"/>
<path d="M191.2,160.5c-21.9,0-39.9,17.6-39.9,39.1c0,21.7,18.3,40.1,40,40.1c21.7,0.1,40-18,40.3-39.9
	C231.9,178.2,213.7,160.5,191.2,160.5z M191.2,223.7c-13.1-0.1-23.8-10.7-23.8-23.7c0-12.9,10.9-23.8,23.8-23.9
	c13.2-0.1,24.3,11.1,24.1,24.3C215.2,213.3,204.4,223.8,191.2,223.7z"/>
<path class="st3" d="M191.3,176c-12.9,0.1-23.8,11-23.8,23.9c0,13,10.6,23.7,23.8,23.7c13.2,0.1,24-10.3,24.2-23.3
	C215.6,187.2,204.4,175.9,191.3,176z"/>
</svg>
