<?xml version="1.0" encoding="utf-8"?>
<!-- Generator: Adobe Illustrator 25.0.0, SVG Export Plug-In . SVG Version: 6.00 Build 0)  -->
<svg version="1.1" id="Layer_1" xmlns="http://www.w3.org/2000/svg" xmlns:xlink="http://www.w3.org/1999/xlink" x="0px" y="0px"
	 viewBox="0 0 700 700" style="enable-background:new 0 0 700 700;" xml:space="preserve">
<g>
	<path d="M623.2,560.2c-55.6-12.3-100.5-26.7-139-56.6l-11.6-9c5.7-12.4,8.6-25.9,8.6-39.6c0-2.3-0.9-4.5-2.6-6.2s-3.9-2.6-6.2-2.6
		h-20.7l18.7-70h28.3c2.7,0,5.2-1.2,6.8-3.3l35-43.8c1.2-1.6,1.9-3.5,1.9-5.5V210c0-2.3-0.9-4.5-2.6-6.2s-3.9-2.6-6.2-2.6H525v-35
		c0-5.4-1.7-10.7-4.8-15.2c-3.1-4.4-7.6-7.8-12.7-9.6v-10.2c0-5.5-1.8-10.9-5-15.4c-3.3-4.5-7.9-7.8-13.1-9.5
		c-1.8-10.2-7.1-19.4-14.9-26c-7.9-6.6-17.9-10.3-28.2-10.3H253.8c-10.3,0-20.3,3.7-28.2,10.3c-7.9,6.6-13.2,15.8-14.9,26
		c-5.3,1.7-9.9,5.1-13.1,9.5c-3.3,4.5-5,9.9-5,15.4v10.2c-5.1,1.8-9.5,5.2-12.7,9.6c-3.1,4.4-4.8,9.7-4.8,15.2v35h-8.8
		c-4.8,0-8.8,3.9-8.8,8.8v113.8c0,2,0.7,3.9,1.9,5.5l35,43.8c1.7,2.1,4.2,3.3,6.8,3.3h28.3l18.7,70h-20.7c-4.8,0-8.8,3.9-8.8,8.8
		c0,13.7,2.9,27.2,8.6,39.6l-11.6,9c-38.5,29.9-83.4,44.3-139,56.6c-4,0.9-6.9,4.4-6.9,8.5v52.5c0,2.3,0.9,4.5,2.6,6.2
		s3.9,2.6,6.2,2.6h542.5c2.3,0,4.5-0.9,6.2-2.6s2.6-3.9,2.6-6.2v-52.5C630,564.6,627.2,561.1,623.2,560.2L623.2,560.2z M309.6,218.8
		h80.7l-11.7,35h-57.4L309.6,218.8z M463.8,201.3H236.3v-36.1c75.5-10.1,152-10.1,227.5,0V201.3z M408.8,218.8H525v70h-39.6
		l-32.4-40.5c-1.7-2.1-4.2-3.3-6.8-3.3h-46.2L408.8,218.8z M192.5,166.3c0-4.8,3.9-8.8,8.8-8.8c2.3,0,4.5-0.9,6.2-2.6
		c1.6-1.6,2.6-3.9,2.6-6.2v-17.5c0-4.8,3.9-8.8,8.8-8.8c2.3,0,4.5-0.9,6.2-2.6c1.6-1.6,2.6-3.9,2.6-6.2c0-7,2.8-13.6,7.7-18.6
		c4.9-4.9,11.6-7.7,18.6-7.7h192.5c7,0,13.6,2.8,18.6,7.7s7.7,11.6,7.7,18.6c0,2.3,0.9,4.5,2.6,6.2s3.9,2.6,6.2,2.6s4.5,0.9,6.2,2.6
		c1.6,1.6,2.6,3.9,2.6,6.2v17.5c0,2.3,0.9,4.5,2.6,6.2c1.6,1.6,3.9,2.6,6.2,2.6s4.5,0.9,6.2,2.6c1.6,1.6,2.6,3.9,2.6,6.2v35h-26.2
		v-43.8c0-4.4-3.2-8-7.5-8.7c-82.1-11.7-165.4-11.7-247.5,0c-4.3,0.6-7.5,4.3-7.5,8.7v43.8h-26.2L192.5,166.3z M227.5,218.8h63.7
		l8.8,26.2h-46.2c-2.7,0-5.2,1.2-6.8,3.3l-32.4,40.5H175v-70L227.5,218.8z M175,320.7v-14.4h43.8c2.7,0,5.2-1.2,6.8-3.3l32.4-40.5
		h47.8l0.9,2.8c1.2,3.6,4.6,6,8.3,6h70c3.8,0,7.1-2.4,8.3-6l0.9-2.8h47.8l32.4,40.5c1.7,2.1,4.2,3.3,6.8,3.3H525v14.4l-30.4,38.1
		H387.9l-32.7-24.5c-3.1-2.3-7.4-2.3-10.5,0l-32.7,24.5H205.4L175,320.7z M315,376.3c1.9,0,3.7-0.6,5.2-1.8l29.8-22.3l29.8,22.3
		c1.5,1.1,3.4,1.8,5.2,1.8h67.4l-19,71.1c-3.3,12.2-10.5,23-20.5,30.7c-10,7.7-22.3,11.9-35,11.9h-55.8c-12.7,0-24.9-4.2-35-11.9
		c-10-7.7-17.2-18.5-20.5-30.7l-19-71.1H315z M254,463.8c6,13,15.6,24.1,27.7,31.9c12.1,7.8,26.1,11.9,40.5,11.9h55.8h0
		c14.4,0,28.4-4.1,40.5-11.9c12.1-7.8,21.7-18.8,27.7-31.9h17.2c-2.2,19.2-11.4,37-25.8,49.9c-14.4,12.9-33.1,20.1-52.5,20.1h-70
		c-19.4,0-38-7.2-52.5-20.1c-14.4-12.9-23.6-30.7-25.8-49.9H254z M612.5,612.5h-525v-36.8c54.7-12.5,99.6-27.7,139.1-58.4l9.5-7.4
		c18,25.9,47.4,41.3,78.9,41.3h70c31.5,0,60.9-15.4,78.9-41.3l9.5,7.4c39.4,30.7,84.3,45.8,139,58.4L612.5,612.5z"/>
	<path d="M306.2,411.3h87.5v17.5h-87.5V411.3z"/>
	<path d="M332.5,446.3h35v17.5h-35V446.3z"/>
</g>
</svg>
