<?xml version="1.0" encoding="utf-8"?>
<!-- Generator: Adobe Illustrator 25.0.0, SVG Export Plug-In . SVG Version: 6.00 Build 0)  -->
<svg version="1.1" id="Layer_1" xmlns="http://www.w3.org/2000/svg" xmlns:xlink="http://www.w3.org/1999/xlink" x="0px" y="0px"
	 viewBox="0 0 382.9 382.5" style="enable-background:new 0 0 382.9 382.5;" xml:space="preserve">
<style type="text/css">
	.st0{fill:#6C6C6C;}
</style>
<path d="M382.3,176.6C375.1,80,296.2,3.4,198.7-0.2c-6-0.1-12,0-18,0.2c-1,0-2,0.1-3,0.1C78.4,7.2,0,90,0,191
	c0,105.7,85.7,191.4,191.4,191.4S382.9,296.8,382.9,191c0-4.7-0.2-9.3-0.5-13.9C382.3,176.9,382.3,176.7,382.3,176.6z M17.7,164.5
	c0.5-3.4,1.1-6.9,1.9-10.3c17.8-80.4,89-137.3,171.8-137.4c85.4,0,157.7,60.1,173.3,143.8c1.2,6.4,0.1,9.3-7,10.5
	c-29.1,4.7-58.4,7.7-87.7,10.2c-6.1,0.5-9.2-1.1-11.5-7.3c-10.5-27.8-37.2-45.9-66.6-46.1c-29.4-0.2-56.6,18.2-67.3,46.2
	c-2.2,5.7-4.8,7.8-10.8,7.2c-21.4-2-42.7-3.8-64.1-6.5c-7.3-0.9-9.1-3.7-7.6-10.7c9.1-44.6,33.1-78.9,72.2-102.5
	c22-13.3,46-20.2,71.8-20.9c1.7,0,3.5,0,5.2-0.3c4.7-0.8,8.1-3.1,7.8-8.3c-0.3-5.2-3.7-7.4-8.5-7.5c-11.6-0.4-22.9,1.2-34.2,3.6
	c-66.9,14.4-117.8,66.9-130,134c-0.2,1.2-0.5,2.4-0.8,3.7c-0.5,2.5-0.7,5.2-4.5,4.3C17.7,169.4,17.3,167.1,17.7,164.5z M247,200.4
	c-0.1,30.1-25.1,55.1-55.3,55.3c-30.6,0.3-55.9-25.2-55.8-56.3c0.1-30.9,24.8-55.5,55.7-55.5C222.7,144.1,247.2,168.9,247,200.4z
	 M16.4,188.8c0.6-3.2,3.1-2.6,5.3-2.3c12.8,1.8,25.6,3.7,38.5,5.4c15.8,2.1,31.6,3.9,47.6,4.5c1.5,0.1,3,0.2,4.4,0.6
	c2.9,0.8,7.4-0.1,6.8,4.9c-0.5,4.5-4.6,2.5-6.4,3.1c-30.5-2.4-60-5.4-89.2-10.4c-1.2-0.2-2.4-0.5-3.6-0.9
	C17.4,193,15.8,191.6,16.4,188.8z M365.5,215.5c-8.9,59.2-40.2,102.9-92.7,131.5c-25.2,13.7-52.5,20-81.3,19.8
	c-86,0-159.3-61.6-173.6-146c-1.9-11.2-1.9-11.3,8.8-9.5c29.8,4.9,59.9,7.9,90,9.9c4.8,0.3,6.7,2.2,8.6,6.3
	c13,28.2,35.2,43.7,66.5,43.6c31-0.1,52.9-15.7,65.7-43.6c1.9-4.1,3.8-6,8.6-6.3c23.2-1.6,46.3-3.4,69.3-6.9
	c5.2-0.8,6.4,0.6,5.4,5.8c-13.1,69-73.2,120.3-143.8,122.7c-1.7,0.1-3.5,0-5.2,0.2c-4.7,0.6-8.2,2.9-8,8.1c0.1,5.6,3.7,7.9,8.9,7.8
	c22.2-0.2,43.8-4.1,64.1-13.2c56.1-25.1,89.6-68,100.7-128.3c0.2-1,0.3-2,0.4-3c0-4.5,3.7-4.6,6.4-4.4
	C367.9,210.5,365.7,213.8,365.5,215.5z M360.5,194.4c-19.1,3.4-38.4,5.9-57.8,7.8c-10.9,1.1-21.8,2-32.8,2.9c-2.6-0.2-6,0.6-6.2-3.5
	c-0.2-3.9,3.1-4.1,5.7-4.3c18.1-1.9,36.2-3.5,54.3-5.5c11.9-1.3,23.7-3.3,35.5-4.9c2.7-0.3,6.4-2.6,7.2,2.2
	C367.1,193.4,363.4,193.9,360.5,194.4z"/>
<path class="st0" d="M382.4,177.1c0-0.2,0-0.4,0-0.5C382.3,176.7,382.3,176.9,382.4,177.1z"/>
<path d="M191.2,160.3c-21.9,0-39.9,17.6-39.9,39.1c0,21.7,18.3,40.1,40,40.1c21.7,0.1,40-18,40.3-39.9
	C231.9,178,213.7,160.3,191.2,160.3z M191.2,223.5c-13.1-0.1-23.8-10.7-23.8-23.7c0-12.9,10.9-23.8,23.8-23.9
	c13.2-0.1,24.3,11.1,24.1,24.3C215.2,213.1,204.4,223.5,191.2,223.5z"/>
</svg>
